<svg id="e4rcJghO7up1" xmlns="http://www.w3.org/2000/svg" xmlns:xlink="http://www.w3.org/1999/xlink" viewBox="0 0 900 400" shape-rendering="geometricPrecision" text-rendering="geometricPrecision"><path d="M681.05381,646.54709v-360h100v360h-100Z" transform="translate(80.57268-266.54709)" fill="#eee" stroke-width="0"/><rect width="196.20481" height="72" rx="0" ry="0" transform="matrix(2.038686 0 0 1 188.37351 20)" fill="#ecb365" stroke-width="0"/><path d="M100,408c0-59.646751,69.123933-108,154.392619-108C321.616133,300,378.805166,330.053074,400,372h-117.10357c-44.16512,0-79.968017,16.117747-79.968017,36s35.802897,36,79.968017,36L400,444c-21.194834,41.946926-78.383867,72-145.607381,72C169.123933,516,100,467.646751,100,408Z" transform="translate(-61.62649-280)" fill="#ecb365" stroke-width="0"/><path d="M100,408c0-59.646751,69.123933-108,154.392619-108C321.616133,300,378.805166,330.053074,400,372h-117.10357c-44.16512,0-79.968017,16.117747-79.968017,36s35.802897,36,79.968017,36L400,444c-21.194834,41.946926-78.383867,72-145.607381,72C169.123933,516,100,467.646751,100,408Z" transform="matrix(-1 0 0-1 838.373509 536)" fill="#ecb365" stroke-width="0"/><path d="M100,408c0-59.646751,69.123933-108,154.392619-108C321.616133,300,378.805166,330.053074,400,372h-117.10357c-44.16512,0-79.968017,16.117747-79.968017,36s35.802897,36,79.968017,36L400,444c-21.194834,41.946926-78.383867,72-145.607381,72C169.123933,516,100,467.646751,100,408Z" transform="matrix(-1 0 0-1 588.37351 680)" fill="#ecb365" stroke-width="0"/><rect width="112.333153" height="72" rx="0" ry="0" transform="matrix(1.557866 0 0 1 163.37351 308)" fill="#ecb365" stroke-width="0"/><path d="M43.67509,699.997656c0-.002009,0-.004017,0-.006026v.006026h200c0,39.76117-44.77153,71.993974-100,71.993974s-100-32.232804-100-71.993974Z" transform="translate(19.69842-391.99163)" fill="#ecb365" stroke-width="0"/></svg>
